<svg xmlns="http://www.w3.org/2000/svg" width="1440" height="820" viewBox="0 0 1440 820"><rect width="1440" height="820" fill="#eeeDE8"/><text x="48" y="48" font-family="Arial,sans-serif" font-size="14" fill="#343b3c">THE BLACK PEARL</text><text x="48" y="95" font-family="Arial,sans-serif" font-size="32" fill="#343b3c">Give one task priority</text><rect x="48" y="130" width="1000" height="640" fill="#fafaf7" stroke="#737b7a" stroke-width="1.5"/><rect x="48" y="130" width="1000" height="62" fill="#e2e3dd" stroke="#8d918f" stroke-width="1.5"/><text x="74" y="169" font-family="Arial,sans-serif" font-size="20" fill="#343b3c">The Black Pearl</text><text x="749" y="169" font-family="Arial,sans-serif" font-size="16" fill="#343b3c">Home      Requests      Tools</text><text x="76" y="234" font-family="Arial,sans-serif" font-size="24" fill="#343b3c">12 May | Day Shift</text><text x="710" y="225" font-family="Arial,sans-serif" font-size="13" fill="#343b3c">Zulu   Washington   Honolulu</text><text x="710" y="246" font-family="Arial,sans-serif" font-size="17" fill="#343b3c">07:00      03:00          21:00</text><path d="M76 270L1020 270" stroke="#a1a5a2"/><text x="76" y="310" font-family="Arial,sans-serif" font-size="15" fill="#343b3c">Up next</text><text x="76" y="353" font-family="Arial,sans-serif" font-size="23" fill="#343b3c">Coastal access assessment</text><text x="76" y="385" font-family="Arial,sans-serif" font-size="14" fill="#343b3c">Due 09:30 Z</text><text x="76" y="420" font-family="Arial,sans-serif" font-size="16" fill="#343b3c">Review imagery in the marked area.</text><text x="76" y="447" font-family="Arial,sans-serif" font-size="16" fill="#343b3c">Flag access issues and gaps in coverage.</text><rect x="76" y="474" width="105" height="36" fill="none" stroke="#8d918f" stroke-width="1.5"/><text x="89" y="497" font-family="Arial,sans-serif" font-size="13" fill="#343b3c">All requests</text><rect x="193" y="474" width="126" height="36" fill="#d4d8d4" stroke="#8d918f" stroke-width="1.5"/><text x="211" y="497" font-family="Arial,sans-serif" font-size="13" fill="#343b3c">Open request</text><rect x="669" y="296" width="351" height="214" fill="#e8eae5" stroke="#8d918f"/><text x="690" y="331" font-family="Arial" font-size="18" fill="#343b3c">Changeover notes</text><path d="M690 359H987M690 385H969M690 411H984M690 437H940" stroke="#a1a5a2"/><path d="M76 544L1020 544" stroke="#a1a5a2"/><text x="76" y="578" font-family="Arial,sans-serif" font-size="18" fill="#343b3c">Tools</text><text x="85" y="612" font-family="Arial,sans-serif" font-size="15" fill="#343b3c">Coordinate converter</text><text x="510" y="612" font-family="Arial,sans-serif" font-size="14" fill="#343b3c">Purpose / direct access</text><text x="993" y="612" font-family="Arial,sans-serif" font-size="17" fill="#343b3c">↗</text><path d="M76 624L1020 624" stroke="#a1a5a2"/><text x="85" y="650" font-family="Arial,sans-serif" font-size="15" fill="#343b3c">Imagery workspace</text><text x="510" y="650" font-family="Arial,sans-serif" font-size="14" fill="#343b3c">Purpose / direct access</text><text x="993" y="650" font-family="Arial,sans-serif" font-size="17" fill="#343b3c">↗</text><path d="M76 662L1020 662" stroke="#a1a5a2"/><text x="85" y="688" font-family="Arial,sans-serif" font-size="15" fill="#343b3c">Report editor</text><text x="510" y="688" font-family="Arial,sans-serif" font-size="14" fill="#343b3c">Purpose / direct access</text><text x="993" y="688" font-family="Arial,sans-serif" font-size="17" fill="#343b3c">↗</text><path d="M76 700L1020 700" stroke="#a1a5a2"/><text x="85" y="726" font-family="Arial,sans-serif" font-size="15" fill="#343b3c">Reference library</text><text x="510" y="726" font-family="Arial,sans-serif" font-size="14" fill="#343b3c">Purpose / direct access</text><text x="993" y="726" font-family="Arial,sans-serif" font-size="17" fill="#343b3c">↗</text><path d="M76 738L1020 738" stroke="#a1a5a2"/><text x="1090" y="210" font-family="Arial,sans-serif" font-size="15" fill="#343b3c">SET THE HIERARCHY</text><text x="1090" y="250" font-family="Arial,sans-serif" font-size="17" fill="#343b3c">Shift context at the top.</text><text x="1090" y="279" font-family="Arial,sans-serif" font-size="17" fill="#343b3c"></text><text x="1090" y="308" font-family="Arial,sans-serif" font-size="17" fill="#343b3c">One task, one next step.</text><text x="1090" y="337" font-family="Arial,sans-serif" font-size="17" fill="#343b3c">Shift notes remain visible</text><text x="1090" y="366" font-family="Arial,sans-serif" font-size="17" fill="#343b3c">beside the next task.</text><text x="1090" y="395" font-family="Arial,sans-serif" font-size="17" fill="#343b3c"></text><text x="1090" y="424" font-family="Arial,sans-serif" font-size="17" fill="#343b3c">The full request queue</text><text x="1090" y="453" font-family="Arial,sans-serif" font-size="17" fill="#343b3c">moves to its own view.</text><text x="1090" y="482" font-family="Arial,sans-serif" font-size="17" fill="#343b3c">Tools stay close at hand.</text></svg>